<?xml version="1.0" encoding="UTF-8"?>
<svg id="Livello_2" data-name="Livello 2" xmlns="http://www.w3.org/2000/svg" viewBox="0 0 90.29 86.55">
  <defs>
    <style>
      .cls-1 {
        fill: none;
        stroke: #8cc63f;
        stroke-miterlimit: 10;
        stroke-width: 8px;
      }
    </style>
  </defs>
  <g id="Livello_1-2" data-name="Livello 1">
    <path class="cls-1" d="m47.8,5.65l10.42,21.11c.43.87,1.27,1.48,2.23,1.62l23.3,3.39c2.43.35,3.4,3.34,1.64,5.05l-16.86,16.43c-.7.68-1.02,1.66-.85,2.62l3.98,23.2c.42,2.42-2.13,4.27-4.3,3.12l-20.84-10.96c-.86-.45-1.89-.45-2.76,0l-20.84,10.96c-2.17,1.14-4.71-.7-4.3-3.12l3.98-23.2c.16-.96-.15-1.94-.85-2.62L4.9,36.82c-1.76-1.71-.79-4.7,1.64-5.05l23.3-3.39c.97-.14,1.8-.75,2.23-1.62l10.42-21.11c1.09-2.2,4.23-2.2,5.31,0Z"/>
  </g>
</svg>