<svg width="40" height="39" viewBox="0 0 40 39" fill="none" xmlns="http://www.w3.org/2000/svg">
<path fill-rule="evenodd" clip-rule="evenodd" d="M20.4337 4.6486L31.7315 10.0893C32.0056 10.2214 32.2048 10.4711 32.2725 10.7678L35.0628 22.993C35.1305 23.2897 35.0595 23.6011 34.8697 23.839L32.5795 26.7108L9.40281 9.54288L19.5659 4.6486C19.8401 4.51656 20.1595 4.51656 20.4337 4.6486ZM7.23669 12.9162L4.93673 22.993C4.86901 23.2897 4.94009 23.6011 5.12983 23.839L12.9481 33.6429C13.1379 33.8808 13.4257 34.0194 13.73 34.0194H26.2696C26.5739 34.0194 26.8617 33.8808 27.0514 33.6429L30.084 29.8401L7.23669 12.9162ZM17.8304 1.04472C19.2013 0.384514 20.7983 0.384514 22.1692 1.04472L33.467 6.48545C34.8379 7.14566 35.8336 8.39422 36.1722 9.87769L38.9625 22.1029C39.3011 23.5864 38.9458 25.1433 37.997 26.333L30.1787 36.1368C29.23 37.3265 27.7912 38.0194 26.2696 38.0194H13.73C12.2084 38.0194 10.7695 37.3265 9.82082 36.1368L2.0025 26.333C1.05379 25.1433 0.698428 23.5864 1.03702 22.1029L3.82734 9.87769C4.16594 8.39422 5.16163 7.14566 6.53257 6.48545L17.8304 1.04472Z" fill="#FF0099"/>
</svg>
