<?xml version="1.0" encoding="UTF-8"?>
<svg id="Livello_2" data-name="Livello 2" xmlns="http://www.w3.org/2000/svg" viewBox="0 0 108.14 95.13">
  <defs>
    <style>
      .cls-1 {
        fill: blue;
      }
    </style>
  </defs>
  <g id="Livello_1-2" data-name="Livello 1">
    <path class="cls-1" d="m54.07,11.94l15.71,38.42c.47,1.14,1.08,2.21,1.84,3.18l25.42,32.81-41.13-5.61c-.61-.08-1.22-.12-1.84-.12s-1.23.04-1.84.12l-41.13,5.61,25.42-32.81c.75-.97,1.37-2.04,1.84-3.18l15.71-38.42m0-11.94c-2.12,0-4.24,1.16-5.18,3.48l-17.93,43.85c-.19.47-.45.91-.76,1.31L1.19,86.09c-2.9,3.75-.13,9.04,4.38,9.04.26,0,.53-.02.81-.06l46.94-6.4c.25-.03.5-.05.76-.05s.51.02.76.05l46.94,6.4c.27.04.54.06.81.06,4.51,0,7.28-5.29,4.38-9.04l-29.01-37.45c-.31-.4-.56-.84-.76-1.31L59.25,3.48c-.95-2.32-3.07-3.48-5.18-3.48h0Z"/>
  </g>
</svg>