<?xml version="1.0" encoding="UTF-8"?>
<svg id="Livello_2" data-name="Livello 2" xmlns="http://www.w3.org/2000/svg" viewBox="0 0 286.52 273.05">
  <defs>
    <style>
      .cls-1 {
        fill: #8cc63f;
      }

      .cls-2 {
        fill: none;
        stroke: #8cc63f;
        stroke-miterlimit: 10;
        stroke-width: 8px;
      }
    </style>
  </defs>
  <g id="Livello_1-2" data-name="Livello 1">
    <path class="cls-1" d="m143.26,10.93l37.79,76.57c1.99,4.04,5.84,6.83,10.29,7.48l84.49,12.28-61.14,59.6c-3.22,3.14-4.69,7.67-3.93,12.1l14.43,84.15-75.57-39.73c-1.95-1.03-4.15-1.57-6.36-1.57s-4.41.54-6.36,1.57l-75.57,39.73,14.43-84.15c.76-4.44-.71-8.96-3.93-12.1L10.68,107.25l84.5-12.28c4.45-.65,8.3-3.44,10.29-7.48L143.26,10.93m0-10.93c-2.02,0-4.05,1.05-5.09,3.16l-39.88,80.8c-.83,1.67-2.42,2.83-4.27,3.1L4.86,100.02c-4.65.68-6.51,6.39-3.14,9.67l64.52,62.89c1.34,1.3,1.95,3.18,1.63,5.02l-15.23,88.8c-.63,3.67,2.28,6.64,5.59,6.64.87,0,1.77-.21,2.64-.66l79.75-41.93c.83-.43,1.73-.65,2.64-.65s1.81.22,2.64.65l79.75,41.93c.87.46,1.77.66,2.64.66,3.3,0,6.22-2.98,5.59-6.64l-15.23-88.8c-.32-1.84.29-3.72,1.63-5.02l64.52-62.89c3.37-3.28,1.51-9-3.14-9.67l-89.16-12.96c-1.85-.27-3.44-1.43-4.27-3.1L148.34,3.16c-1.04-2.11-3.06-3.16-5.09-3.16h0Z"/>
    <path class="cls-2" d="m105.33,106.23l5.94,12.03c.25.5.72.84,1.27.92l13.28,1.93c1.38.2,1.94,1.9.94,2.88l-9.61,9.36c-.4.39-.58.95-.49,1.49l2.27,13.22c.24,1.38-1.21,2.43-2.45,1.78l-11.87-6.24c-.49-.26-1.08-.26-1.57,0l-11.87,6.24c-1.24.65-2.69-.4-2.45-1.78l2.27-13.22c.09-.55-.09-1.11-.49-1.49l-9.61-9.36c-1-.98-.45-2.68.94-2.88l13.28-1.93c.55-.08,1.03-.43,1.27-.92l5.94-12.03c.62-1.25,2.41-1.25,3.03,0Z"/>
    <path class="cls-2" d="m184.03,106.13l5.94,12.03c.25.5.72.84,1.27.92l13.28,1.93c1.38.2,1.94,1.9.94,2.88l-9.61,9.36c-.4.39-.58.95-.49,1.49l2.27,13.22c.24,1.38-1.21,2.43-2.45,1.78l-11.87-6.24c-.49-.26-1.08-.26-1.57,0l-11.87,6.24c-1.24.65-2.69-.4-2.45-1.78l2.27-13.22c.09-.55-.09-1.11-.49-1.49l-9.61-9.36c-1-.98-.45-2.68.94-2.88l13.28-1.93c.55-.08,1.03-.43,1.27-.92l5.94-12.03c.62-1.25,2.41-1.25,3.03,0Z"/>
    <path class="cls-2" d="m182.41,167.33c.61,0,1.09,1,1.03,2.14-1.12,22.2-19.52,39.86-42.06,39.86s-40.95-17.66-42.06-39.86c-.06-1.14.41-2.14,1.03-2.14h82.07Z"/>
    <line class="cls-2" x1="121.81" y1="167.33" x2="121.81" y2="205.07"/>
    <line class="cls-2" x1="163.56" y1="167.33" x2="163.56" y2="203.04"/>
  </g>
</svg>